<svg width="2518" height="676" viewBox="0 0 2518 676" fill="none" xmlns="http://www.w3.org/2000/svg">
<path d="M720.406 254.862C700.318 234.248 690.274 208.95 690.274 178.966C690.274 148.982 700.318 123.817 720.406 103.471C740.762 82.8573 765.537 72.5504 794.732 72.5504C823.927 72.5504 848.568 82.8573 868.656 103.471C889.012 123.817 899.19 148.982 899.19 178.966V193.021H732.459C735.673 209.887 743.039 223.138 754.556 232.776C766.073 242.414 779.465 247.232 794.732 247.232C813.481 247.232 828.48 242.548 839.729 233.178C844.818 229.43 849.238 224.745 852.987 219.123H897.181C891.556 232.241 884.458 243.351 875.888 252.453C853.925 274.405 826.873 285.381 794.732 285.381C765.537 285.381 740.762 275.208 720.406 254.862ZM734.468 158.888H854.996C852.586 145.502 846.157 134.124 835.712 124.754C825.534 115.384 811.874 110.699 794.732 110.699C780.269 110.699 767.412 115.117 756.163 123.951C744.914 132.518 737.682 144.163 734.468 158.888Z" fill="black"/>
<path d="M915.291 76.5661H959.485L1003.68 243.217H1029.79L1073.99 76.5661H1118.18L1061.93 281.366H971.538L915.291 76.5661Z" fill="black"/>
<path d="M1164.54 254.862C1144.45 234.248 1134.41 208.95 1134.41 178.966C1134.41 148.982 1144.45 123.817 1164.54 103.471C1184.9 82.8573 1209.67 72.5504 1238.87 72.5504C1268.06 72.5504 1292.7 82.8573 1312.79 103.471C1333.14 123.817 1343.32 148.982 1343.32 178.966V193.021H1176.59C1179.81 209.887 1187.17 223.138 1198.69 232.776C1210.21 242.414 1223.6 247.232 1238.87 247.232C1257.61 247.232 1272.61 242.548 1283.86 233.178C1288.95 229.43 1293.37 224.745 1297.12 219.123H1341.31C1335.69 232.241 1328.59 243.351 1320.02 252.453C1298.06 274.405 1271.01 285.381 1238.87 285.381C1209.67 285.381 1184.9 275.208 1164.54 254.862ZM1178.6 158.888H1299.13C1296.72 145.502 1290.29 134.124 1279.84 124.754C1269.67 115.384 1256.01 110.699 1238.87 110.699C1224.4 110.699 1211.55 115.117 1200.3 123.951C1189.05 132.518 1181.82 144.163 1178.6 158.888Z" fill="black"/>
<path d="M1379.51 281.366V76.5661H1421.7V106.684H1423.71C1426.65 101.062 1430.94 95.7075 1436.56 90.621C1448.88 79.9125 1463.35 74.5583 1479.95 74.5583H1504.06V114.715H1477.94C1461.61 114.715 1448.08 119.935 1437.37 130.376C1426.92 140.549 1421.7 154.069 1421.7 170.935V281.366H1379.51Z" fill="black"/>
<path d="M1522 217.115H1568.2C1570.07 222.469 1573.42 227.556 1578.24 232.374C1588.15 242.28 1601.54 247.232 1618.42 247.232C1633.15 247.232 1643.86 244.957 1650.56 240.406C1657.26 235.855 1660.6 230.099 1660.6 223.138C1660.6 220.729 1660.07 218.587 1659 216.713C1657.93 214.572 1656.05 212.698 1653.37 211.091C1650.69 209.485 1648.15 208.147 1645.74 207.076C1643.33 205.737 1639.71 204.532 1634.89 203.462C1630.07 202.123 1626.19 201.186 1623.24 200.651C1620.29 199.847 1615.74 198.777 1609.58 197.438C1603.69 196.099 1599.27 195.163 1596.32 194.627C1553.47 184.989 1532.04 164.376 1532.04 132.786C1532.04 116.723 1539.41 102.668 1554.14 90.621C1568.87 78.5739 1588.29 72.5504 1612.39 72.5504C1645.87 72.5504 1670.92 83.2589 1687.52 104.676C1695.02 114.046 1700.11 124.754 1702.79 136.801H1658.59C1656.45 131.447 1653.51 127.164 1649.76 123.951C1640.38 115.117 1627.93 110.699 1612.39 110.699C1600.34 110.699 1591.23 112.841 1585.07 117.124C1579.18 121.408 1576.23 126.762 1576.23 133.187C1576.23 135.597 1576.77 137.872 1577.84 140.014C1578.91 141.888 1580.79 143.628 1583.47 145.234C1586.14 146.84 1588.69 148.179 1591.1 149.25C1593.78 150.321 1597.39 151.525 1601.95 152.864C1606.5 153.935 1610.38 154.872 1613.6 155.675C1616.81 156.21 1621.23 157.147 1626.86 158.486C1632.75 159.557 1637.3 160.494 1640.52 161.297C1683.37 170.935 1704.8 191.548 1704.8 223.138C1704.8 240.272 1697.03 254.996 1681.5 267.311C1666.23 279.358 1645.2 285.381 1618.42 285.381C1583.6 285.381 1556.95 274.004 1538.47 251.248C1530.17 240.807 1524.67 229.43 1522 217.115Z" fill="black"/>
<path d="M1758.14 255.264C1738.58 235.185 1728.81 209.753 1728.81 178.966C1728.81 148.179 1738.58 122.746 1758.14 102.668C1777.69 82.5896 1802.06 72.5504 1831.26 72.5504C1863.93 72.5504 1890.58 84.999 1911.21 109.896C1920.05 121.408 1926.21 133.723 1929.69 146.841H1885.5C1883.62 140.148 1880.14 134.124 1875.05 128.77C1864.6 116.723 1850.01 110.699 1831.26 110.699C1814.65 110.699 1800.72 116.991 1789.47 129.573C1778.49 142.156 1773 158.62 1773 178.966C1773 199.312 1778.49 215.776 1789.47 228.359C1800.72 240.941 1814.65 247.232 1831.26 247.232C1850.54 247.232 1865.67 241.209 1876.66 229.162C1881.48 223.808 1885.09 217.784 1887.5 211.091H1929.69C1926.21 224.745 1920.05 237.193 1911.21 248.437C1890.85 273.067 1864.2 285.381 1831.26 285.381C1802.06 285.381 1777.69 275.342 1758.14 255.264Z" fill="black"/>
<path d="M1978.98 256.067C1960.77 236.256 1951.66 210.556 1951.66 178.966C1951.66 147.376 1960.77 121.809 1978.98 102.266C1997.46 82.4558 2020.49 72.5504 2048.08 72.5504C2065.49 72.5504 2081.43 77.6369 2095.89 87.81C2102.05 92.0934 2107.54 97.0461 2112.36 102.668H2114.37V76.5661H2156.56V281.366H2114.37V253.256H2112.36C2108.35 258.878 2102.86 264.232 2095.89 269.319C2081.43 280.027 2065.49 285.381 2048.08 285.381C2020.49 285.381 1997.46 275.61 1978.98 256.067ZM2011.92 128.368C2001.21 140.148 1995.85 157.014 1995.85 178.966C1995.85 200.918 2001.21 217.784 2011.92 229.563C2022.64 241.343 2037.37 247.232 2056.12 247.232C2073.8 247.232 2087.86 241.343 2098.3 229.563C2109.02 217.516 2114.37 200.651 2114.37 178.966C2114.37 157.281 2109.02 140.549 2098.3 128.77C2087.86 116.723 2073.8 110.699 2056.12 110.699C2037.37 110.699 2022.64 116.589 2011.92 128.368Z" fill="black"/>
<path d="M2204.61 281.366V0.268188H2246.8V243.217H2293V281.366H2204.61Z" fill="black"/>
<path d="M2339.22 254.862C2319.13 234.248 2309.09 208.95 2309.09 178.966C2309.09 148.982 2319.13 123.817 2339.22 103.471C2359.57 82.8573 2384.35 72.5504 2413.54 72.5504C2442.74 72.5504 2467.38 82.8573 2487.47 103.471C2507.82 123.817 2518 148.982 2518 178.966V193.021H2351.27C2354.48 209.887 2361.85 223.138 2373.37 232.776C2384.88 242.414 2398.28 247.232 2413.54 247.232C2432.29 247.232 2447.29 242.548 2458.54 233.178C2463.63 229.43 2468.05 224.745 2471.8 219.123H2515.99C2510.37 232.241 2503.27 243.351 2494.7 252.453C2472.74 274.405 2445.68 285.381 2413.54 285.381C2384.35 285.381 2359.57 275.208 2339.22 254.862ZM2353.28 158.888H2473.81C2471.4 145.502 2464.97 134.124 2454.52 124.754C2444.34 115.384 2430.68 110.699 2413.54 110.699C2399.08 110.699 2386.22 115.117 2374.97 123.951C2363.72 132.518 2356.49 144.163 2353.28 158.888Z" fill="black"/>
<path fill-rule="evenodd" clip-rule="evenodd" d="M390.323 675.536L600.238 467.188V75.298L208.348 75.298L0 285.381L390.155 285.381L390.323 675.536Z" fill="#6347F5"/>
</svg>
